<?xml version="1.0" encoding="UTF-8"?>
<!DOCTYPE svg PUBLIC "-//W3C//DTD SVG 1.1//EN" "http://www.w3.org/Graphics/SVG/1.1/DTD/svg11.dtd">
<svg xmlns="http://www.w3.org/2000/svg" version="1.1" width="484px" height="468px" style="shape-rendering:geometricPrecision; text-rendering:geometricPrecision; image-rendering:optimizeQuality; fill-rule:evenodd; clip-rule:evenodd" xmlns:xlink="http://www.w3.org/1999/xlink">
<g><path style="opacity:1" fill="#fdfdfd" d="M -0.5,-0.5 C 160.833,-0.5 322.167,-0.5 483.5,-0.5C 483.5,155.5 483.5,311.5 483.5,467.5C 322.167,467.5 160.833,467.5 -0.5,467.5C -0.5,311.5 -0.5,155.5 -0.5,-0.5 Z"/></g>
<g><path style="opacity:1" fill="#18191a" d="M 226.5,43.5 C 231.159,43.0146 232.492,44.848 230.5,49C 225.728,49.8104 224.395,47.9771 226.5,43.5 Z"/></g>
<g><path style="opacity:1" fill="#111213" d="M 202.5,52.5 C 202.5,52.1667 202.5,51.8333 202.5,51.5C 204.081,47.026 207.414,45.026 212.5,45.5C 212.773,47.451 212.107,48.951 210.5,50C 212.134,50.4935 213.801,50.6602 215.5,50.5C 215.5,49.1667 215.5,47.8333 215.5,46.5C 217.5,46.5 219.5,46.5 221.5,46.5C 221.449,48.5695 222.115,50.4029 223.5,52C 221.685,56.6341 221.018,61.4674 221.5,66.5C 219.5,66.5 217.5,66.5 215.5,66.5C 215.5,62.5 215.5,58.5 215.5,54.5C 213.833,54.5 212.167,54.5 210.5,54.5C 210.5,58.5 210.5,62.5 210.5,66.5C 208.5,66.5 206.5,66.5 204.5,66.5C 204.904,61.6007 204.237,56.934 202.5,52.5 Z"/></g>
<g><path style="opacity:1" fill="#131415" d="M 279.5,46.5 C 283.215,46.1961 286.715,46.8627 290,48.5C 290.215,50.4196 289.548,52.0863 288,53.5C 283.711,51.3954 280.878,52.5621 279.5,57C 279.903,58.4728 280.57,59.8061 281.5,61C 283.9,61.1858 286.234,61.6858 288.5,62.5C 289.246,63.7362 289.579,65.0695 289.5,66.5C 278.178,68.6787 273.011,64.012 274,52.5C 275.36,49.9774 277.193,47.9774 279.5,46.5 Z"/></g>
<g><path style="opacity:1" fill="#707071" d="M 184.5,48.5 C 183.791,49.404 182.791,49.7373 181.5,49.5C 181.5,51.1667 181.5,52.8333 181.5,54.5C 180.539,52.7354 180.205,50.7354 180.5,48.5C 181.833,48.5 183.167,48.5 184.5,48.5 Z"/></g>
<g><path style="opacity:1" fill="#0f1011" d="M 184.5,48.5 C 185.5,48.5 186.5,48.5 187.5,48.5C 187.181,53.3633 187.514,58.03 188.5,62.5C 189.919,63.4511 191.585,63.7845 193.5,63.5C 193.5,64.8333 193.5,66.1667 193.5,67.5C 190.038,68.4816 186.371,68.815 182.5,68.5C 182.46,63.8075 182.127,59.1408 181.5,54.5C 181.5,52.8333 181.5,51.1667 181.5,49.5C 182.791,49.7373 183.791,49.404 184.5,48.5 Z"/></g>
<g><path style="opacity:1" fill="#0d0d0f" d="M 234.5,65.5 C 234.5,60.5 234.5,55.5 234.5,50.5C 235.833,50.5 237.167,50.5 238.5,50.5C 242.071,48.8752 245.404,49.2085 248.5,51.5C 249.443,56.1001 249.777,60.7668 249.5,65.5C 247.5,65.5 245.5,65.5 243.5,65.5C 243.5,61.8333 243.5,58.1667 243.5,54.5C 242.5,54.5 241.5,54.5 240.5,54.5C 240.5,58.1667 240.5,61.8333 240.5,65.5C 238.5,65.5 236.5,65.5 234.5,65.5 Z"/></g>
<g><path style="opacity:1" fill="#0d0e10" d="M 264.5,50.5 C 265.5,50.5 266.5,50.5 267.5,50.5C 267.5,55.5 267.5,60.5 267.5,65.5C 266.647,68.5179 264.647,70.3512 261.5,71C 257.793,71.9963 254.459,71.3296 251.5,69C 252.071,67.7949 252.738,66.6283 253.5,65.5C 256.288,68.0748 258.955,68.0748 261.5,65.5C 252.267,65.3508 249.434,60.6842 253,51.5C 254.438,50.2815 256.105,49.6148 258,49.5C 260.137,50.0767 262.304,50.41 264.5,50.5 Z"/></g>
<g><path style="opacity:1" fill="#121214" d="M 225.5,50.5 C 227.5,50.5 229.5,50.5 231.5,50.5C 231.5,55.5 231.5,60.5 231.5,65.5C 229.5,65.5 227.5,65.5 225.5,65.5C 225.5,60.5 225.5,55.5 225.5,50.5 Z"/></g>
<g><path style="opacity:1" fill="#0e0f10" d="M 200.5,51.5 C 200.19,54.7131 200.523,57.7131 201.5,60.5C 201.5,62.8333 201.5,65.1667 201.5,67.5C 199.5,67.5 197.5,67.5 195.5,67.5C 195.303,60.2432 195.136,53.2432 195,46.5C 200.367,44.8634 201.534,46.3634 198.5,51C 199.094,51.4643 199.761,51.631 200.5,51.5 Z"/></g>
<g><path style="opacity:1" fill="#121314" d="M 296.5,51.5 C 308.204,51.7482 311.204,56.9149 305.5,67C 300.928,69.3748 296.762,68.8748 293,65.5C 290.267,59.7222 291.434,55.0555 296.5,51.5 Z"/></g>
<g><path style="opacity:1" fill="#141415" d="M 344.5,52.5 C 349.5,51.5 351.5,53.5 350.5,58.5C 353.97,57.8748 356.804,58.8748 359,61.5C 358.518,66.121 358.018,70.7877 357.5,75.5C 355.738,75.6427 354.071,75.3094 352.5,74.5C 351.707,70.88 351.707,67.2133 352.5,63.5C 351.5,63.5 350.5,63.5 349.5,63.5C 348.949,66.8067 348.616,70.1401 348.5,73.5C 346.5,73.5 344.5,73.5 342.5,73.5C 343.167,66.5 343.833,59.5 344.5,52.5 Z"/></g>
<g><path style="opacity:1" fill="#141516" d="M 312.5,53.5 C 316.584,53.0431 320.417,53.7098 324,55.5C 325.778,60.4194 325.945,65.4194 324.5,70.5C 320.51,70.0013 316.51,69.5013 312.5,69C 308.518,66.0485 308.518,63.0485 312.5,60C 315.025,59.1041 317.192,59.6041 319,61.5C 319.483,60.552 319.649,59.552 319.5,58.5C 317.473,58.6621 315.473,58.4955 313.5,58C 312.62,56.6439 312.286,55.1439 312.5,53.5 Z"/></g>
<g><path style="opacity:1" fill="#131415" d="M 172.5,53.5 C 173.5,53.5 174.5,53.5 175.5,53.5C 175.5,55.1667 175.5,56.8333 175.5,58.5C 174.5,58.5 173.5,58.5 172.5,58.5C 172.364,61.5514 172.698,64.5514 173.5,67.5C 172.323,69.9746 170.323,70.9746 167.5,70.5C 166.725,65.2032 166.392,59.8699 166.5,54.5C 168.144,54.2865 169.644,54.6198 171,55.5C 171.717,54.9558 172.217,54.2891 172.5,53.5 Z"/></g>
<g><path style="opacity:1" fill="#e4e4e4" d="M 258.5,54.5 C 259.496,54.4142 260.329,54.7476 261,55.5C 261.494,57.1341 261.66,58.8008 261.5,60.5C 257.556,60.1156 256.556,58.1156 258.5,54.5 Z"/></g>
<g><path style="opacity:1" fill="#111213" d="M 153.5,55.5 C 160.845,54.1874 164.512,57.1874 164.5,64.5C 161.266,64.2046 158.266,64.8713 155.5,66.5C 158.167,66.8333 160.833,67.1667 163.5,67.5C 164.668,68.9056 164.335,70.0723 162.5,71C 153.032,73.8645 148.532,70.3645 149,60.5C 150.366,58.6383 151.866,56.9717 153.5,55.5 Z"/></g>
<g><path style="opacity:1" fill="#121314" d="M 332.5,55.5 C 336.22,55.2961 339.553,56.2961 342.5,58.5C 341.833,59.8333 340.833,60.8333 339.5,61.5C 336.19,59.7411 333.856,60.5745 332.5,64C 332.759,65.2613 333.426,66.2613 334.5,67C 336.433,67.2511 338.266,67.7511 340,68.5C 340.684,69.7839 340.517,70.9505 339.5,72C 329.779,73.2779 325.945,69.1113 328,59.5C 329.397,57.9297 330.897,56.5964 332.5,55.5 Z"/></g>
<g><path style="opacity:1" fill="#676868" d="M 200.5,51.5 C 201.167,51.5 201.833,51.5 202.5,51.5C 202.5,51.8333 202.5,52.1667 202.5,52.5C 201.527,54.9479 201.194,57.6146 201.5,60.5C 200.523,57.7131 200.19,54.7131 200.5,51.5 Z"/></g>
<g><path style="opacity:1" fill="#7f7e80" d="M 238.5,50.5 C 237.167,50.5 235.833,50.5 234.5,50.5C 234.5,55.5 234.5,60.5 234.5,65.5C 233.512,60.3595 233.179,55.0262 233.5,49.5C 235.415,49.2155 237.081,49.5489 238.5,50.5 Z"/></g>
<g><path style="opacity:1" fill="#e3e3e3" d="M 298.5,56.5 C 302.473,57.0755 303.473,59.2421 301.5,63C 300.216,63.6838 299.049,63.5171 298,62.5C 297.322,60.4024 297.489,58.4024 298.5,56.5 Z"/></g>
<g><path style="opacity:1" fill="#0e0f10" d="M 141.5,57.5 C 143.5,57.5 145.5,57.5 147.5,57.5C 146.67,62.8075 146.003,68.1408 145.5,73.5C 143.738,73.3573 142.071,73.6906 140.5,74.5C 139,72.1667 137.5,69.8333 136,67.5C 135.503,70.146 135.336,72.8127 135.5,75.5C 133.473,75.6621 131.473,75.4955 129.5,75C 126.787,71.0758 124.453,66.9091 122.5,62.5C 127.071,58.8936 129.904,59.8936 131,65.5C 131.495,63.5273 131.662,61.5273 131.5,59.5C 133.833,59.5 136.167,59.5 138.5,59.5C 138.491,61.3084 138.991,62.9751 140,64.5C 140.29,62.0796 140.79,59.7463 141.5,57.5 Z"/></g>
<g><path style="opacity:1" fill="#909091" d="M 264.5,50.5 C 265.568,49.5655 266.901,49.2322 268.5,49.5C 268.821,55.0262 268.488,60.3595 267.5,65.5C 267.5,60.5 267.5,55.5 267.5,50.5C 266.5,50.5 265.5,50.5 264.5,50.5 Z"/></g>
<g><path style="opacity:1" fill="#e4e5e4" d="M 155.5,60.5 C 156.675,60.281 157.675,60.6143 158.5,61.5C 157.277,62.6139 155.944,62.7805 154.5,62C 155.056,61.6174 155.389,61.1174 155.5,60.5 Z"/></g>
<g><path style="opacity:1" fill="#111213" d="M 363.5,54.5 C 366.261,53.9147 367.927,54.9147 368.5,57.5C 368.41,59.4251 367.41,60.5917 365.5,61C 366.624,61.8388 367.291,63.0055 367.5,64.5C 366.51,68.4559 365.844,72.4559 365.5,76.5C 363.533,76.7394 361.699,76.4061 360,75.5C 360.165,70.5038 360.665,65.5038 361.5,60.5C 362.552,60.6495 363.552,60.4828 364.5,60C 362.365,58.4443 362.032,56.6109 363.5,54.5 Z"/></g>
<g><path style="opacity:1" fill="#101012" d="M 369.5,62.5 C 374.564,62.6251 379.397,63.6251 384,65.5C 384.651,70.2935 384.151,74.9601 382.5,79.5C 380.5,79.5 378.5,79.5 376.5,79.5C 377.167,75.8333 377.833,72.1667 378.5,68.5C 377.178,68.33 376.011,68.6634 375,69.5C 374.047,72.4318 373.547,75.4318 373.5,78.5C 371.5,78.1667 369.5,77.8333 367.5,77.5C 368.327,72.5233 368.994,67.5233 369.5,62.5 Z"/></g>
<g><path style="opacity:1" fill="#0c0d0e" d="M 92.5,63.5 C 100.81,61.3368 104.644,64.3368 104,72.5C 102.648,74.4324 100.815,75.7657 98.5,76.5C 97.5258,78.7427 97.1924,81.076 97.5,83.5C 95.8561,83.2865 94.3561,83.6198 93,84.5C 90.8496,77.896 89.0162,71.2293 87.5,64.5C 89.4147,64.7845 91.0813,64.4511 92.5,63.5 Z"/></g>
<g><path style="opacity:1" fill="#131415" d="M 112.5,62.5 C 118.864,62.0005 122.531,64.8339 123.5,71C 123.203,76.9606 120.037,79.7939 114,79.5C 107.609,78.069 105.276,74.069 107,67.5C 108.73,65.5981 110.563,63.9314 112.5,62.5 Z"/></g>
<g><path style="opacity:1" fill="#e0dfdf" d="M 316.5,63.5 C 318.337,63.6395 318.67,64.3061 317.5,65.5C 316.702,65.0431 316.369,64.3764 316.5,63.5 Z"/></g>
<g><path style="opacity:1" fill="#5b5b5c" d="M 188.5,62.5 C 190.5,62.5 192.5,62.5 194.5,62.5C 194.784,64.4147 194.451,66.0813 193.5,67.5C 193.5,66.1667 193.5,64.8333 193.5,63.5C 191.585,63.7845 189.919,63.4511 188.5,62.5 Z"/></g>
<g><path style="opacity:1" fill="#0c0d0e" d="M 77.5,65.5 C 78.8333,65.5 80.1667,65.5 81.5,65.5C 82.6325,73.9668 84.2992,82.3001 86.5,90.5C 84.4534,90.5111 82.4534,90.8444 80.5,91.5C 79.3527,91.1822 78.5194,90.5156 78,89.5C 76.1667,82.8333 74.3333,76.1667 72.5,69.5C 72.6082,68.5581 72.9415,67.7247 73.5,67C 75.0581,66.79 76.3915,66.29 77.5,65.5 Z"/></g>
<g><path style="opacity:1" fill="#0f1011" d="M 389.5,66.5 C 393.945,66.7203 398.278,67.5536 402.5,69C 403.022,69.5613 403.355,70.228 403.5,71C 402.333,75.5025 401.166,80.0025 400,84.5C 394.654,89.7414 389.154,89.7414 383.5,84.5C 384.167,83.1667 385.167,82.1667 386.5,81.5C 388.93,83.571 391.597,83.9044 394.5,82.5C 384.58,79.9487 382.913,74.6154 389.5,66.5 Z"/></g>
<g><path style="opacity:1" fill="#0e0f10" d="M 410.5,65.5 C 413.461,66.3234 416.461,66.99 419.5,67.5C 418.047,76.1065 415.714,84.4398 412.5,92.5C 410.5,91.8333 408.5,91.1667 406.5,90.5C 406.167,89.8333 405.833,89.1667 405.5,88.5C 407.383,80.8573 409.05,73.1906 410.5,65.5 Z"/></g>
<g><path style="opacity:1" fill="#dbdbdb" d="M 94.5,68.5 C 95.8333,68.5 97.1667,68.5 98.5,68.5C 98.5,69.5 98.5,70.5 98.5,71.5C 96.0274,71.9118 94.6941,70.9118 94.5,68.5 Z"/></g>
<g><path style="opacity:1" fill="#efefef" d="M 112.5,68.5 C 114.167,68.5 115.833,68.5 117.5,68.5C 117.66,70.1992 117.494,71.8659 117,73.5C 115.667,74.8333 114.333,74.8333 113,73.5C 112.506,71.8659 112.34,70.1992 112.5,68.5 Z"/></g>
<g><path style="opacity:1" fill="#e4e4e5" d="M 392.5,72.5 C 393.833,72.5 395.167,72.5 396.5,72.5C 396.99,74.9484 396.157,76.615 394,77.5C 391.389,76.5001 390.889,74.8334 392.5,72.5 Z"/></g>
<g><path style="opacity:1" fill="#141415" d="M 64.5,73.5 C 66.288,73.2148 67.9547,73.5481 69.5,74.5C 70.9923,79.47 72.3256,84.47 73.5,89.5C 71.4012,90.2309 69.4012,90.2309 67.5,89.5C 66.3712,84.7796 65.0378,80.1129 63.5,75.5C 63.8627,74.8165 64.1961,74.1499 64.5,73.5 Z"/></g>
<g><path style="opacity:1" fill="#101112" d="M 422.5,73.5 C 424.977,73.0508 426.977,73.7175 428.5,75.5C 426.695,80.3895 425.361,85.3895 424.5,90.5C 421.944,90.8678 419.944,90.0345 418.5,88C 420.071,83.2137 421.404,78.3804 422.5,73.5 Z"/></g>
<g><path style="opacity:1" fill="#060709" d="M 161.5,113.5 C 168.026,113.178 172.86,115.845 176,121.5C 182,137.5 188,153.5 194,169.5C 195.62,171.726 197.786,173.06 200.5,173.5C 218.67,167.395 237.336,164.895 256.5,166C 268.979,168.022 281.312,170.356 293.5,173C 296,171.833 297.833,170 299,167.5C 304.893,150.481 311.559,133.814 319,117.5C 323.368,114.58 328.201,113.747 333.5,115C 356.823,136.317 377.99,159.484 397,184.5C 400.855,190.21 404.188,196.21 407,202.5C 409.486,216.558 403.82,224.891 390,227.5C 382.833,226.749 377.167,223.415 373,217.5C 365.169,196.008 356.169,175.008 346,154.5C 340.315,145.116 334.148,136.116 327.5,127.5C 306.126,170.915 285.292,214.582 265,258.5C 260.334,270.158 262.5,280.325 271.5,289C 279.64,293.776 288.307,294.776 297.5,292C 321.833,281.508 333,263.008 331,236.5C 328.885,228.933 325.218,222.266 320,216.5C 314.437,211.637 308.604,207.137 302.5,203C 305.969,196.552 309.802,190.386 314,184.5C 342.025,201.536 352.358,226.203 345,258.5C 333.002,295.165 308.836,319.998 272.5,333C 267.768,334.466 263.102,336.133 258.5,338C 250.152,339.913 241.818,339.913 233.5,338C 209.495,331.087 188.661,318.92 171,301.5C 158.434,287.034 150.1,270.367 146,251.5C 141.899,221.705 152.733,199.372 178.5,184.5C 182.788,190.234 186.455,196.401 189.5,203C 181.862,207.758 175.029,213.592 169,220.5C 156.463,240.975 158.13,260.309 174,278.5C 186.02,291.621 200.52,295.788 217.5,291C 227.139,284.767 230.972,275.934 229,264.5C 226.673,258.51 224.339,252.51 222,246.5C 203.362,206.558 184.196,166.892 164.5,127.5C 157.078,137.426 150.244,147.76 144,158.5C 134.74,178.622 126.074,198.955 118,219.5C 109.718,228.446 100.552,229.613 90.5,223C 83.979,215.675 82.8123,207.508 87,198.5C 99.5823,177.359 114.582,158.025 132,140.5C 141.154,130.502 150.987,121.502 161.5,113.5 Z"/></g>
<g><path style="opacity:1" fill="#f4f4f4" d="M 135.5,146.5 C 136.043,146.56 136.376,146.893 136.5,147.5C 127.423,164.661 117.589,181.328 107,197.5C 103.507,201.993 99.6733,206.159 95.5,210C 92.7629,211.08 91.0963,210.246 90.5,207.5C 92.2763,201.281 95.1097,195.614 99,190.5C 110.936,175.618 123.103,160.951 135.5,146.5 Z"/></g>
<g><path style="opacity:1" fill="#07080a" d="M 69.5,372.5 C 83.8488,372.167 98.1821,372.501 112.5,373.5C 111.561,377.765 111.228,382.098 111.5,386.5C 107.167,386.5 102.833,386.5 98.5,386.5C 98.5,399.833 98.5,413.167 98.5,426.5C 93.5,426.5 88.5,426.5 83.5,426.5C 83.5,413.167 83.5,399.833 83.5,386.5C 78.8333,386.5 74.1667,386.5 69.5,386.5C 69.5,381.833 69.5,377.167 69.5,372.5 Z"/></g>
<g><path style="opacity:1" fill="#0d0e10" d="M 130.5,405.5 C 129.532,407.607 129.198,409.941 129.5,412.5C 136.5,412.5 143.5,412.5 150.5,412.5C 151.486,416.97 151.819,421.637 151.5,426.5C 138.92,426.822 126.42,426.489 114,425.5C 113.5,407.836 113.333,390.17 113.5,372.5C 125.833,372.5 138.167,372.5 150.5,372.5C 150.5,377.167 150.5,381.833 150.5,386.5C 143.5,386.5 136.5,386.5 129.5,386.5C 129.5,388.5 129.5,390.5 129.5,392.5C 135.167,392.5 140.833,392.5 146.5,392.5C 146.797,396.767 146.464,400.934 145.5,405C 140.511,405.499 135.511,405.666 130.5,405.5 Z"/></g>
<g><path style="opacity:1" fill="#0b0c0d" d="M 170.5,372.5 C 176.509,372.334 182.509,372.501 188.5,373C 195.587,390.429 201.587,408.262 206.5,426.5C 201.156,426.666 195.823,426.499 190.5,426C 188.691,423.151 187.691,419.985 187.5,416.5C 182.5,416.5 177.5,416.5 172.5,416.5C 172.002,419.829 171.002,422.995 169.5,426C 164.177,426.499 158.844,426.666 153.5,426.5C 158.76,408.385 164.427,390.385 170.5,372.5 Z"/></g>
<g><path style="opacity:1" fill="#090a0c" d="M 252.5,425.5 C 252.666,418.159 252.5,410.826 252,403.5C 251.283,404.044 250.783,404.711 250.5,405.5C 248.44,412.18 246.274,418.847 244,425.5C 240.333,426.833 236.667,426.833 233,425.5C 230.333,418.167 227.667,410.833 225,403.5C 224.5,410.826 224.334,418.159 224.5,425.5C 219.167,425.5 213.833,425.5 208.5,425.5C 208.5,407.833 208.5,390.167 208.5,372.5C 214.509,372.334 220.509,372.501 226.5,373C 230.907,382.546 234.741,392.38 238,402.5C 242.025,392.762 245.858,382.929 249.5,373C 255.825,372.5 262.158,372.334 268.5,372.5C 268.667,390.17 268.5,407.836 268,425.5C 262.734,426.824 257.567,426.824 252.5,425.5 Z"/></g>
<g><path style="opacity:1" fill="#0b0c0d" d="M 311.5,418.5 C 309.429,417.191 306.929,416.525 304,416.5C 301.31,416.503 298.81,416.836 296.5,417.5C 295.937,420.477 294.937,423.311 293.5,426C 288.177,426.499 282.844,426.666 277.5,426.5C 282.531,408.717 288.031,391.05 294,373.5C 300.084,372.358 306.251,372.191 312.5,373C 319.199,390.573 325.199,408.406 330.5,426.5C 324.833,426.5 319.167,426.5 313.5,426.5C 313.037,423.779 312.371,421.112 311.5,418.5 Z"/></g>
<g><path style="opacity:1" fill="#040507" d="M 359.5,395.5 C 359.783,396.289 360.283,396.956 361,397.5C 361.5,389.507 361.666,381.507 361.5,373.5C 366.305,372.513 371.305,372.179 376.5,372.5C 376.5,390.167 376.5,407.833 376.5,425.5C 371.125,425.828 365.792,425.495 360.5,424.5C 356.333,416.833 352.167,409.167 348,401.5C 347.5,409.493 347.334,417.493 347.5,425.5C 342.5,425.5 337.5,425.5 332.5,425.5C 332.5,407.833 332.5,390.167 332.5,372.5C 337.511,372.334 342.511,372.501 347.5,373C 351.907,380.316 355.907,387.816 359.5,395.5 Z"/></g>
<g><path style="opacity:1" fill="#7d7d7e" d="M 361.5,373.5 C 361.666,381.507 361.5,389.507 361,397.5C 360.283,396.956 359.783,396.289 359.5,395.5C 360.167,388.167 360.833,380.833 361.5,373.5 Z"/></g>
<g><path style="opacity:1" fill="#050608" d="M 379.5,372.5 C 393.833,372.5 408.167,372.5 422.5,372.5C 422.167,377.167 421.833,381.833 421.5,386.5C 417.167,386.5 412.833,386.5 408.5,386.5C 408.5,399.5 408.5,412.5 408.5,425.5C 403.5,425.5 398.5,425.5 393.5,425.5C 393.5,412.5 393.5,399.5 393.5,386.5C 388.833,386.5 384.167,386.5 379.5,386.5C 379.5,381.833 379.5,377.167 379.5,372.5 Z"/></g>
<g><path style="opacity:1" fill="#e6e6e6" d="M 183.5,404.5 C 181.167,405.833 178.833,405.833 176.5,404.5C 177.153,400.038 178.32,395.705 180,391.5C 181.638,395.722 182.805,400.055 183.5,404.5 Z"/></g>
<g><path style="opacity:1" fill="#eaeaea" d="M 307.5,405.5 C 304.612,406.01 302.279,405.344 300.5,403.5C 301.175,399.643 302.342,395.977 304,392.5C 305.68,396.705 306.847,401.038 307.5,405.5 Z"/></g>
<g><path style="opacity:1" fill="#777777" d="M 252.5,425.5 C 251.833,418.833 251.167,412.167 250.5,405.5C 250.783,404.711 251.283,404.044 252,403.5C 252.5,410.826 252.666,418.159 252.5,425.5 Z"/></g>
<g><path style="opacity:1" fill="#575758" d="M 176.5,404.5 C 178.833,405.833 181.167,405.833 183.5,404.5C 184.043,404.56 184.376,404.893 184.5,405.5C 181.5,406.833 178.5,406.833 175.5,405.5C 175.624,404.893 175.957,404.56 176.5,404.5 Z"/></g>
<g><path style="opacity:1" fill="#606162" d="M 300.5,403.5 C 302.279,405.344 304.612,406.01 307.5,405.5C 305.052,406.473 302.385,406.806 299.5,406.5C 299.263,405.209 299.596,404.209 300.5,403.5 Z"/></g>
<g><path style="opacity:1" fill="#9c9c9c" d="M 130.5,405.5 C 130.5,407.5 130.5,409.5 130.5,411.5C 137.354,411.176 144.021,411.509 150.5,412.5C 143.5,412.5 136.5,412.5 129.5,412.5C 129.198,409.941 129.532,407.607 130.5,405.5 Z"/></g>
<g><path style="opacity:1" fill="#939394" d="M 296.5,417.5 C 298.81,416.836 301.31,416.503 304,416.5C 306.929,416.525 309.429,417.191 311.5,418.5C 306.595,417.555 301.595,417.221 296.5,417.5 Z"/></g>
</svg>
